<svg xmlns="http://www.w3.org/2000/svg" width="349" height="304" viewBox="0 0 349 304" version="1.1"><path d="M 162 19.668 C 130.063 24.725, 106.628 36.055, 84.610 57.085 C 63.984 76.785, 50.961 100.446, 44.859 129.312 C 41.797 143.794, 41.814 167.283, 44.896 181.873 C 47.609 194.712, 50.008 201.898, 55.508 213.664 C 59.093 221.334, 68.306 237.001, 69.230 237 C 69.378 236.999, 69.540 231.937, 69.590 225.750 C 69.690 213.106, 71.982 204.693, 78.179 194.217 C 83.245 185.656, 97.777 171.705, 115.431 158.456 C 141.157 139.150, 151.136 128.667, 156.551 115.261 C 159.635 107.624, 161.243 97.077, 160.548 89.024 L 159.986 82.500 161.574 87 C 162.448 89.475, 163.407 96.297, 163.706 102.160 C 164.165 111.160, 163.924 113.892, 162.159 119.702 C 157.935 133.608, 146.904 146.485, 123 165.412 C 104.050 180.417, 92.445 192.615, 87.238 203 C 73.387 230.629, 84.009 258.261, 115.145 275.594 C 143.530 291.396, 179.312 295.958, 211.500 287.878 C 254.626 277.053, 278.143 253.252, 274.078 224.545 C 271.521 206.493, 263.901 193.960, 241.985 171.761 L 226.919 156.500 232.334 165 C 243.670 182.793, 247.033 192.085, 247.720 207.500 C 248.092 215.871, 247.805 220.054, 246.518 225 C 241.627 243.801, 227.083 261.056, 205.402 273.777 C 196.141 279.212, 195.323 278.498, 203.045 271.722 C 220.568 256.342, 232.993 237.690, 236.043 222.187 C 237.603 214.260, 236.801 202.544, 234.116 193.996 C 231.416 185.405, 225.797 176.199, 213.976 161 C 202.315 146.006, 194.075 133.522, 189.776 124.334 L 186.603 117.554 184.961 123.027 C 183.001 129.562, 178.305 138.978, 174.252 144.500 C 172.637 146.700, 166.362 153.943, 160.307 160.595 C 142.688 179.953, 137.900 187.245, 134.386 200.071 C 131.778 209.592, 131.998 226.195, 134.869 236.432 C 137.704 246.540, 144.433 259.550, 151.455 268.500 C 162.405 282.455, 162.159 281.854, 154.933 277.019 C 151.395 274.652, 143.988 268.161, 138.474 262.595 C 130.293 254.337, 127.580 250.795, 123.736 243.352 C 117.373 231.031, 115.685 223.395, 116.253 209.500 C 117.054 189.895, 121.068 182.612, 142.599 161.700 C 159.098 145.674, 163.139 140.738, 169.363 129 C 176.620 115.314, 182.025 96.340, 183.651 78.840 C 184.003 75.055, 184.476 72.143, 184.702 72.369 C 184.928 72.595, 186.086 76.767, 187.276 81.640 L 189.440 90.500 190.259 83 C 191.147 74.864, 194.517 59.208, 196.355 54.680 C 197.297 52.361, 197.522 54.491, 197.625 66.680 C 197.923 102.107, 209.499 126.506, 238 151.781 C 257.897 169.426, 272.187 183.404, 276.486 189.428 C 285 201.359, 290.953 217.855, 291.022 229.708 L 291.044 233.500 292.978 231 C 296.928 225.894, 305.030 209.075, 308.418 198.951 C 313.578 183.527, 315.348 172.084, 315.291 154.500 C 315.169 116.858, 300.809 83.410, 273.499 57.158 C 246.951 31.640, 214.652 18.781, 178 19.140 C 170.575 19.213, 163.375 19.450, 162 19.668 M 210.729 204.634 C 210.106 223.568, 208.145 233.334, 202.488 245.675 C 197.961 255.551, 193.855 261.319, 185.575 269.432 L 178.500 276.364 183.500 273.535 C 200.217 264.078, 211.323 251.293, 216.105 236 C 219.865 223.978, 218.387 204.367, 212.724 191.134 C 211.372 187.976, 211.249 188.806, 210.729 204.634" stroke="none" fill="#5b61fc" fill-rule="evenodd"/></svg>
