<?xml version="1.0" encoding="UTF-8"?>
<svg id="svg8" xmlns="http://www.w3.org/2000/svg" viewBox="0 0 82.75 59.17">
  <defs>
    <style>
      .cls-1 {
        fill: #4fd5ee;
        stroke-width: 0px;
      }
    </style>
  </defs>
  <path id="path3551" class="cls-1" d="M41.32,13.43c-12.61.03-22.81,10.26-22.81,22.87,0,12.63,10.24,22.87,22.87,22.87h0c5.85,0,11.47-2.24,15.72-6.26h-15.72c-9.17,0-16.61-7.44-16.61-16.61,0-9.17,7.44-16.61,16.61-16.61h0c9.17,0,16.61,7.44,16.61,16.61h0v15.72c4.02-4.25,6.26-9.87,6.26-15.72,0-12.63-10.24-22.87-22.87-22.87h0s-.04,0-.06,0h0Z"/>
  <path id="path3553" class="cls-1" d="M41.37,0C21.36,0,5.07,16.29,5.07,36.3h6.21c0-16.66,13.43-30.1,30.09-30.1s30.1,13.44,30.1,30.1h6.2C77.68,16.29,61.39,0,41.37,0Z"/>
  <path id="path3555" class="cls-1" d="M8.17,33.2c-4.48,0-8.17,3.7-8.17,8.17v7.79c0,4.48,3.7,8.18,8.17,8.18s8.18-3.71,8.18-8.18v-7.79c0-4.48-3.71-8.17-8.18-8.17ZM8.17,39.4c1.15,0,1.98.83,1.98,1.97v7.79c0,1.15-.84,1.97-1.98,1.97s-1.97-.83-1.97-1.97v-7.79c0-1.15.83-1.97,1.97-1.97Z"/>
  <path id="path3557" class="cls-1" d="M74.58,33.2c-4.48,0-8.17,3.7-8.17,8.17v7.79c0,4.48,3.7,8.18,8.17,8.18s8.17-3.71,8.17-8.18v-7.79c0-4.48-3.7-8.17-8.17-8.17ZM74.58,39.4c1.15,0,1.97.83,1.97,1.97v7.79c0,1.15-.83,1.97-1.97,1.97s-1.97-.83-1.97-1.97v-7.79c0-1.15.83-1.97,1.97-1.97Z"/>
</svg>