<svg width="30" height="30" viewBox="0 0 30 30" fill="none" xmlns="http://www.w3.org/2000/svg">
<path d="M20.3556 20.3588H25.7122V25.7154H20.3556V20.3588ZM16.0703 16.0736H20.3556V20.3588H16.0703V16.0736ZM25.7122 25.7154H29.9974V30.0007H25.7122V25.7154ZM26.7835 16.0736H29.9974V19.2875H26.7835V16.0736ZM16.0703 26.7867H19.2843V30.0007H16.0703V26.7867ZM20.3556 4.28906H25.7122V9.64565H20.3556V4.28906Z" fill="white"/>
<path d="M29.9929 13.9271H16.0657V0H29.9929V13.9271ZM19.0119 10.981H27.0467V2.94612H19.0119V10.981ZM4.28125 4.28527H9.63783V9.64185H4.28125V4.28527Z" fill="white"/>
<path d="M13.9271 13.9271H0V0H13.9271V13.9271ZM2.94612 10.981H10.981V2.94612H2.94612V10.981ZM4.28527 20.355H9.64185V25.7116H4.28527V20.355Z" fill="white"/>
<path d="M13.9271 29.9974H0V16.0703H13.9271V29.9974ZM2.94612 27.0513H10.981V19.0164H2.94612V27.0513Z" fill="white"/>
</svg>
